# xmcd
#
# Track frame offsets:
#	150
#	15692
#	43786
#	61815
#
# Disc length: 1082 seconds
#
# Revision: 0
# Processed by: cddbd v1.5.2PL0 Copyright (c) Steve Scherf et al.
# Submitted via: audiograbber 1.83.01
#
DISCID=2b043804
DTITLE=Starting Rock feat. Diva Avari - Movin' On [CDs)
DYEAR=2008
DGENRE=House
TTITLE0=Movin' On (Radio Edit)
TTITLE1=Movin' On (Club Extended Mix)
TTITLE2=Movin' On (DJ Style n' Tabu Remix)
TTITLE3=Movin' On (Jimmy Kyle Mix)
EXTD=
EXTT0=
EXTT1=
EXTT2=
EXTT3=
PLAYORDER=
